/* XPM */
static char *_6012f76721242c0e9595d9a0365c59aICFVzC5ysnhLW4Pz[] = {
/* columns rows colors chars-per-pixel */
"70 70 227 2 ",
"   c #010105",
".  c #090905",
"X  c #05040A",
"o  c #09060D",
"O  c #06090D",
"+  c #0A090E",
"@  c #130E0F",
"#  c #050512",
"$  c #0A0612",
"%  c #0C0B12",
"&  c #0B0B18",
"*  c #110E15",
"=  c #110F1A",
"-  c #0E1015",
";  c #0E1118",
":  c #121116",
">  c #14141A",
",  c #1A171D",
"<  c #16191B",
"1  c #1A191D",
"2  c #20201C",
"3  c #171A24",
"4  c #1C1C22",
"5  c #211D23",
"6  c #201E29",
"7  c #1C2125",
"8  c #1D242C",
"9  c #1F2731",
"0  c #222226",
"q  c #2A2726",
"w  c #25252B",
"e  c #23282E",
"r  c #2C2C2D",
"t  c #332F2A",
"y  c #33312E",
"u  c #3D352E",
"i  c #232B34",
"p  c #2C2D33",
"a  c #252F39",
"s  c #292F38",
"d  c #2E3135",
"f  c #27303B",
"g  c #2A333C",
"h  c #333434",
"j  c #393633",
"k  c #3B3935",
"l  c #33363B",
"z  c #38373D",
"x  c #36393D",
"c  c #3C3B3B",
"v  c #443C35",
"b  c #493F37",
"n  c #423E3B",
"m  c #3F403F",
"M  c #4A4137",
"N  c #43413D",
"B  c #4B433B",
"V  c #564A3E",
"C  c #2C3741",
"Z  c #2E3943",
"A  c #333B44",
"S  c #3A3D43",
"D  c #323D49",
"F  c #3C3F4A",
"G  c #3D4145",
"H  c #34414D",
"J  c #3C434B",
"K  c #364450",
"L  c #3A4651",
"P  c #3D4955",
"I  c #3D4C5A",
"U  c #444343",
"Y  c #494643",
"T  c #4D4945",
"R  c #42454A",
"E  c #484749",
"W  c #45494E",
"Q  c #4B4B4C",
"!  c #524B44",
"~  c #5A4E41",
"^  c #514E4A",
"/  c #5C5145",
"(  c #55514C",
")  c #5B534B",
"_  c #434B54",
"`  c #4A4D52",
"'  c #434E5A",
"]  c #4D5155",
"[  c #44515D",
"{  c #4B535C",
"}  c #545454",
"|  c #5B5753",
" . c #595857",
".. c #53565B",
"X. c #565A5E",
"o. c #5A5B5C",
"O. c #67594A",
"+. c #625C54",
"@. c #655E58",
"#. c #69635C",
"$. c #756757",
"%. c #7F705F",
"&. c #455463",
"*. c #4B5662",
"=. c #4D5A65",
"-. c #4C5C6B",
";. c #505763",
":. c #535C65",
">. c #5C5E63",
",. c #525E6A",
"<. c #4F5F70",
"1. c #4F606F",
"2. c #5D6164",
"3. c #54616D",
"4. c #5B636C",
"5. c #5E686F",
"6. c #546473",
"7. c #5A6673",
"8. c #576877",
"9. c #5C6975",
"0. c #5D6C7B",
"q. c #646464",
"w. c #696967",
"e. c #64666A",
"r. c #6A6B6D",
"t. c #736D67",
"y. c #787068",
"u. c #7A746C",
"i. c #636C75",
"p. c #6B6E73",
"a. c #626E7B",
"s. c #6C7073",
"d. c #64717D",
"f. c #6B737C",
"g. c #787878",
"h. c #806F5D",
"j. c #82705E",
"k. c #8D7E6D",
"l. c #827E7A",
"z. c #83807B",
"x. c #5F7182",
"c. c #637382",
"v. c #6B7682",
"b. c #6D7985",
"n. c #6C7B8A",
"m. c #737C85",
"M. c #797C81",
"N. c #727E8A",
"B. c #807F87",
"V. c #7B8187",
"C. c #75818C",
"Z. c #7B848C",
"A. c #748492",
"S. c #7A8692",
"D. c #778894",
"F. c #7D8994",
"G. c #7D8D9C",
"H. c #7E8FA1",
"J. c #7F90A0",
"K. c #868789",
"L. c #838C95",
"P. c #8B8E93",
"I. c #828D99",
"U. c #8C9095",
"Y. c #85919D",
"T. c #8B949C",
"R. c #979899",
"E. c #A6A29C",
"W. c #8594A3",
"Q. c #8C96A2",
"!. c #8C99A5",
"~. c #8698A8",
"^. c #8B9BAA",
"/. c #949CA4",
"(. c #9A9FA6",
"). c #929EAB",
"_. c #8E9FB1",
"`. c #9BA0A6",
"'. c #95A1AC",
"]. c #9BA4AD",
"[. c #97A6B4",
"{. c #9AA5B1",
"}. c #9DA9B5",
"|. c #A6A8A9",
" X c #B4ACA6",
".X c #A3ACB4",
"XX c #AAAFB4",
"oX c #A2AEB9",
"OX c #A9B1B8",
"+X c #ACB3BB",
"@X c #B5B8B8",
"#X c #BBBCBC",
"$X c #C0BEBD",
"%X c #C3C2BF",
"&X c #ABB6C1",
"*X c #AFB9C3",
"=X c #B3BCC4",
"-X c #B7BFC6",
";X c #BDC2C5",
":X c #B6C0CA",
">X c #BCC4CC",
",X c #BEC7D1",
"<X c #C4C5C4",
"1X c #C5C7C9",
"2X c #C7C9CB",
"3X c #CCCCCB",
"4X c #D0CEC7",
"5X c #D1D1CE",
"6X c #C5CCD3",
"7X c #CDCED1",
"8X c #CDD1D3",
"9X c #D4D4D3",
"0X c #D7D8D8",
"qX c #DCDCDB",
"wX c #E0DFDD",
"eX c #E3E2DE",
"rX c #D7DCE0",
"tX c #DEE1E4",
"yX c #E5E5E3",
"uX c #E8E6E2",
"iX c #ECEAE5",
"pX c #E7E9E8",
"aX c #ECECEA",
"sX c #F1EFEA",
"dX c #F4F1EA",
"fX c #F3F2F2",
"gX c #FAFAFB",
/* pixels */
"f C I 3.L.X X   % o X     X o $ g.r.l.X % % % + = > 0 * *   f.A l l A S G X X X X <   : X % = 0 X X X + % % + X $ $ $ o X X o > +         , ",
"C Z C L :./.  o o X         X X X g.X X + + + o   X *   +   o A l x S F R X   X X     > %   % ` + $ $ % + o o + I.b.o o X X o % X + 5 o * , ",
"H C g ' *.a.  + . . .             X X X X X X X     +   o X o J A S S S  .X X X >   %   + %   > % % = + X   X '.-.&.6.o o X o $     o %     ",
"C A 8 a I *.f.X . . . . . . F.C.  X + o X   X X + + + X + + o   F S R S X X X X O R M.%   % X   o + + o X X :Xc.&.&.-.A.$ o X o o +   ` X X ",
"g i : < C ' {     . . . . 9X'.W.!.I.+ + X X X o + % X X X % X   ` R R ..          S f.+   > %   X X X + pXaX'.6.&.&.=.0.F.F.  o X % + p.4 : ",
"3 > : 3 8 [ =.p.          #X,.F.Y.W.}.o X X X X X +   o   % o X + + } o X X X X %   X   + =   X X   X aXsXtXn.-.&.&.0.-.n.D.F.$   X - 0 O   ",
"8 8 8 9 i i *.{ X X X X ;X;.:...>.{ ..g.o o X X X %   %   : + $ % $ + + tXn.+ $ O     % o 8X;X5 X X 5XuXiX;Xp.-.-.-.-.I 6.A.v.> > o %       ",
"9 i 8 9 i a g [ K.# # # {.=.,.4. .>.e.g.X o X     +   +   % X O X X X 4.4.Q } X   >   X   g.}   X uXuXiXfXOXc.-.-.-.-.3.-.8.C.4.> X X - # - ",
"i i i i a g g C ...     { =.*.` T | +.u.X X X X X X X X X X X X         ` Q  .+   X >   $ >.o   aXuXuX0X]./.n.6.-.D 6.8.8.-.0.N.  O % o X & ",
"i 9 8 i f g f f c e.gX+ :.*.{ W n ^ ^ y.X X X X X X X X X X X X X X X X X Q X X % X X   + o % + uXeX<Xi.' ' a.I.0.8.0.6.I ' &.b.Z.O O X X # ",
"a i a f g f f d n ( 1 w ' ' J E Y N Y g.X X X X X X X X X X X X o o X X X       p     X         yX#Xd.*.P D L C.oXZ.8.K D D D ' N.X O X X o ",
"f g S U g d d d B Y q.X X E U n N n n X X X X o -.b.X o o X X X o o X X X       ..1   0 o $ X 3X].a.Z.' L J D J :.K.F Z A D D L >.m.X X X X ",
"p h j j h r k O.V ) U   p F 3 c k c   X X X X 9XQ.D.n.+ + o X X X X X X X X X X ` , o p $ $ + Z.7.a.3.*.L K J J l d d D D D H _ W { M.o o o ",
"k v v M ~ $.h.O.$.@.n :   X X > o     X o X .XqX;Xr.4.Z.o o X X     X X X X X X 3     > X X o L 3.b.d.6.,.' ' J d e p A I I &.{ W R ` o $ $ ",
"v v v ~ $.j.j.j.$.v c   0 4     X     o + X +X+X:.] E Q q.X X X 9Xf.p.X X X X X o X + o = % : { I N.I.C.N.b.:.l d z p l R 3.9.] W R ] o % $ ",
"v / B $.~ %.%.O.u b ^ .       + X     + $ X I.C.R U U E Q X X eX|.` ^ X X X X     X %   % X o   _ ,.'..X].o.h h h p h l c c c R ` `   o % $ ",
"~ / V O.~ v M ! !     . .     .       . .   n.4.R S w Y } X X ` ` o.#.N $ + X   @   . . . :   4 ;.' L.@X .y r h h c c c k k n N ] X.  X X o ",
"O.O.q B u k B | :   % 1   . 0   . . . . .   M.R S S c U X X X X ` `  .X o o X   . <     .   1   > ' ' G y y h h h h h h k k n n  .2.. X o o ",
"O.$.t v y j T X <   4     :   + X . + + . X . R S S U Q X . O O + X X X =X}.~.X q     r S + X   % 4.P p r y h h h r h h c k v B | O O o + $ ",
"~ b j ^ 2 G o X     >     > 0     X X X o + o X z c U X o + O O X X X OX~.G.G.D.Y.. + fX  : : : o o _ r r y h h j k k k j B ) +.o.. . + + $ ",
"~ t N c :.:.C.` X   :   1 %       X X     X X   X X X o + + X X   ,X[.~.H.G.G.J.J.G.Q.  > 0   % o o f.x h T +.! ! M j y ( T U E  .X X X o o ",
"M T #.E c n N ^ % $     > o S % $ = % o X o o   X X X o o o X gX+X_.^.W.Y.I.W.A.C.D.^.^.^.+ >   o o } } o.} c h r r t ^ c c E + X X #X..X o ",
"^ . . S c k Y T   4   e   o gX  > 3 > $ o % $ X % $ X X X o gX0X6X-X}._.~.~.W.F.S.W.^.[.}.].+   o o X o   c r r r r } U h   * X X X o.} X o ",
"  . . S c k N & >   3   >   $ m.0.8.= X X $ % X > % X   X fX3X6X6X6X6X>X&X^.~.~.~.^.[.}.}.{.L.  X $ o o $ $   r h c  .r   X =   X X X o o o ",
"5   o r c c $       X o o X '.x.<.6.0.  o >   o o   % X pXOX=X&X*X-X-X:X>XT.6.0.3.7.8.0.0.i.i.$ X %   % X %   :     X > > +     X         +X",
"  5     : 4   >     X X o o N.&.-.0.c.a.9.% o     ; K.yXqX'.{.[.[.}.oX.X.X9.L I &.=.<.8.8.,.J i.  X   + o % X > + X X : , : X   O + % .XoX{.",
",     o             X X o /.-.&.&.&.0.v.0.  > X   > p.fX-X!.Y.W.!.).'.'.'.=.L I &.H ,.0.0.,.x S ;.+   + + +   + = X   + : : + X   ;X{.f.e F.",
"  , o 4   5 gX4   X X X -XC.6.&.*.&.6.n.b.  : % o X .X8XqX>X{.Y.Y.W.W.Y.W.*.L ' &._ =.n.n.3.l l S % X o $ X   X o     X o o X   fX-X).^.^.!.",
"*     * +   r.- R X X ;XL.b.0.1.&.&.8.3.4.+ X 1 >   ).!.d.&.L.}.).I.!.).Y.7.I &.-.8.3.4.A.{ l x x X     % o X %   X $ o X X X X qX&X[.).).!.",
"  5   * X X r   c X X =XH A L 4.C.a.a.` X.m.  w % L.Q.F.=.L I H v.].oX}.!.N.' [ -._ 7 1 { G l S F X     % X X o X % > = $ o $ yX6X&XoX].).!.",
"w     w   %   % X X +XD A l A A J { #.T o.p.  0 X Q.T.C.,.K f.A D D H =.W..X0.6.-.D 8 7 L A x S W + %   1 =X3.X X % > % $ $ % 0X|.T.OX{.{.).",
"* , X       %       x l l l x F J ] ^ T ( q.  + X   Y.Y.a.L D Z Z D D P F.8XN.-.&.[ I I =.R S G q.X = + .X8.7.$ X & & # X # yX#XXX-X+X.X{.].",
"S = % , o   X X % X x z h x S J _ } ( T ( t.> + > : Y.+XL.P L H D A D I c.+XK.f.d.7.,.e.g.^ G E > % aXsXY.d.c.N.        X X ].-X8X7XP.P..X{.",
"4 X   + X   X o % 3 3 S r r G W {  .) T @.% 4     X Q..Xm.' L L D D D I -.q.! v N N n N B n E Q $ X 9Xe. .r.f.f.X X X     X -.3.T.1X=XR..X/.",
"X X     o X   % %     X c l A _ :.@.! +.%   % 3 X X '.*.L { _ L H D D L =...M v v b b k j k U X $ o _ J R | ) ) + + o X X X =.H ,.C.(.].d.l ",
"X , % X % o   X X   > 4   ..z S o.k.#.  : % +   % % Y.L H [ { { _ H H P { T v v M B M b k k E o $ % G S S U ^ ( % % $ + o o :.=.=.-.7.R z 1 ",
"X , = X % +   X % X o X = ..p.o.( #.+ 4 X   z :. .$ o _ _ *.s.X.X.{ P I *.^ k v M B M v j T X o o X 3 c h N ! % o o o o o o o =.,.=.' x h d ",
"  o X   o o X X   o >       > o   o       = ` U } + o ..J J E T } o.{ I ' Y j j v M / +.y.t.o % $   >   3 n o       X X X X X :.,.:._ h h h ",
"%     X   X o X %     % , % X   1     $ : o   % + + o X W z n M N N } _ { T y y v +.#.u.q.X + = $   %   % X X o     X X X X X 5.3.:.R h k h ",
"5 X X %   X o     $ o X   $ o X X   4   + > +       X X o o n v v v h e d k y y y.) l.X X X X $ o X = o   X % p X X o + + o X X =.*.G h h N ",
"j +   X   X %     e   + 5 + >   %   o o :   %   . .       X |.r r r q q r r j y.w.g.  . . X   + X   X +     : S   % X o     ,     ..` p r r ",
"q |.W.n.Q.X % X % p $ , 4   .   % X 4   % : %   . . .   X 5X1XR.f.f.v.J c c q.+     +         + $ X X $     o 0 O o $ p 0   X   . X z r x W ",
"|.tX[ I -.F.].X   =     +   : .   3   > $         . . . + |.Z.<X1X&XC.N U U U + < .     + 4 .   % + o + o >X  X O   % z h = = * . X . X G 2.",
"#X4.H K I =.b.G.  > %     . %     X +   X 7XX     . .   X XX0XXXpXXXn n N N n +     X     6X>X:X=X-X=X=X=X=X>X>X+Xa.m.% % % * X X X . . .   ",
"/.D D H I [ R { A.X > : X     X X % :   % 0X% + X . X   X 3.-.-.M.^ c n c n N o : : >   fX>X:X:X=X-X=X=X+X:X,XF.' F J     o X   + + + . X . ",
"D Z D K ' J S S _ f.    X .   : X 5 T.c.:     o + + + X o 3.=.=.:.E N c c n n o X       2X:X:X:X:X=X=X-X{.N.*.J S l l p.> %   + . . X X .   ",
"Z Z H I =.A d S G R r.  + 1   . o M.i.4.c = %   X o o o $ ,.=.,.:.U c c c n N o o > 3 tX;X>X>X>X>X:XY.7._ J J S x l z X o o                 ",
"C Z H &.[ S S S G U Q     0 . X o Q [ ` c Y % X     X X $ = :.-.:.c c c c c X X o   X tXrX6X6X>X/.{ J G F A S A x l l     , + @XS.f.X X . + ",
"Z 9 L [ _ S S S c U U %   h >   . > ;.h U ^ : . O X X         ,.:.c c c c N o X   X 4 8.|.pXyXR.U S S A S J A A x l l o X qX9X&XC.0.0.a.X   ",
"C D I -.S c G U U U Q     , X   X X R S N ^ .   X       r.Q % - ,...U c G $ $ o $ 3 p 3.:.,.7.( G S S A S l l A A l A o 3X9X9XOXn.0.0.c.c.c.",
"Z H I >.c S m U U U o   o     o   . r G q.r X   X       X % > 1 > % o X X X o $   o 4 X ,.=.*.{ U S S S S A F A A F Q 3X9X9X9XoXm.c.x.c.c.a.",
"f H D ~ ) c c k U E :   , X   o > +   : :   X > O o R.K.X + % - o o X X   X o $ >   X $ :.:.*.{ W S S F J J J J J s.9X3X9X9X0X}.m.d.0.c.c.c.",
"Z g 0 c c c c j U : =   > X + X o % o > > X $ X + g.U.K.t.X X X X X o o o o $ $ ` 3 o o $ 4.=.[ { A c G J J F U p.9X3X9X9X9X9X-XS.0.6.1.7.8.",
"a h h c c c S c   : X       = X   %   *X^.].$   X e.q.q.t.X     X X o o o o X X e 3 $ o % i ,.=.L F G h y U c K.9X@X3X0X3X9X9X7X].A.c.c.:.m.",
"X   ..U c c c o   % X >     % o X = }.W.W.G.~.W.X X X X X X     X X X X $ $ o o     o % % d % ,.*.{ { J S d K.9X<X<XR.<X9X3X9X3X6X+X|.Y.C.N.",
"o   X = = X   X   % % S :   $ o o W.G.W.~.W.^.W.F.F.X         |.K.u.X o % > > > % o X $   %   $   :._ W R P.9X9X5XR.g.<X3X#X9X0X8X2X].v.-.7.",
"X o % > > % X X X   % 4 1 X   + .XG.H.W.^.^.^.^.G.7.C..   . |.R.l.t.+ + X % > X # $ % % - % X X X o % = = 9X9X9X9X|.@X1X3X#XqXqX9XOXF.,.I L ",
"    o % % o     X X % 1 > X   L.|.-XoX[.~.~.^.^.W.d.N.V.    K.U.q.w.+ %     $ 6 # # X X X X X O X o + $ 9X%X9X9X9X3X3X3X<XqX0XuX1XQ.6.[ I L ",
"      o o       X + = % + X   [ =.v.pX0XXXc.:.J l J c.e.. .   @.@.|   +Xc.X z B.# # # X X # $ $ o o o 9X9X9X9X9X9X7X7X9XeXiXaXiXU.:.{ ' I I ",
"X     o o X   X   $ % X X X X =.4.N.].E. .Q E S w p U } g..     : + 9X/.n.a.1 >.# # & & & $ # o + 5X9X#X9X9X9X9X0XqXwXuX XyXpX/.:._ I I ' [ ",
"X     X o X X o   + +     o + ,.v.T.p.y.B U U U r p h Q r.. .     . g.c z z   X # # # & # o X   3X0X|.9X9X9X9X9X9XqXqX0XeXuX|.4._ P L I ' [ ",
"X     X X X X o   o o     + + 0.I.' o.#.$.! T T r h h  .q.. . X     U h r h +   = % # X     X 9XyXqX9X5X3X9X9X9XqXuX#X9X5XXX3._ L F J J _ ' ",
"X     X o X X o X X X X X o o b._ F F @.y.) Y N r h h o.>.. . .   . .   c   X   - % O X   . qXdXuXqX9X<X#XeXeXyXdXiX5X1X`.7._ J A x G S _ _ ",
"X   X + $ o o + + X X X o X X V.X.R J W u.t.T n h j ^ o.. . . .   . 2 <     % X '.  X .   8XeXdXeXwXwX9XuXuXiXiXiXsX9X|.3.P D g g d l F E _ ",
"    X X o + o X o o X X X o o o :.r.>.{ q.) N n k N ! X X X % -   X % X 4 X   U.p 4 X X X .XXXsXuXeXiX%X%X<XdXeX%X4XXX9.J A C g f s d f E W ",
"X   X X o o o X o o X X X o o o e.e.e.{ c S c x z n T X   X X O h       +   = X . X X X OXZ.T.#X0Xg.qXqXqX$XiX3X@X#Xi.I A g g f a a a a G Y ",
"      X X o X X o o o X X X o o X e.2.z z l z S R Q X X         K.1 % 4 X   >   X X X .XY.L.T.T.Y.C.L.I.I.Y.E.R.#XV.I A g a a i i i i i h Y ",
"X     X X X X X X X X X X X X X X X X X.X X   X   X X X         X.    > X X >   X X ].L.F.|./.L.Z.N.v.b.7.v.V. XU._ D g f i 8 9 8 8 8 8 e Y ",
".       . X .     X X X       X X X X X X X X X     X X X X X X +     X X % % o X T.S.Z.K.XX+XZ.m.i.a.d.d.d.v.K.2.J C f i e 7 7 7 < 7 8 8 e ",
".         . .     . X X       . X X X X X X X       X X X X o %   0 :   X %   X . C.C.C.L.0X3XF.m.v.d.a.a.a.d.z.X.D g a i e e 0 3 e 3 3 3 8 "
};
