/* XPM */
static char *_93fe99960904d34bd2b97dee00a4782wKZD2mIamH5yvGQH[] = {
/* columns rows colors chars-per-pixel */
"70 70 126 2 ",
"   c #020105",
".  c #080307",
"X  c #090A06",
"o  c #05040A",
"O  c #09060C",
"+  c #07090C",
"@  c #0A090D",
"#  c #10060F",
"$  c #100E0F",
"%  c #0D110D",
"&  c #13140E",
"*  c #060511",
"=  c #0A0612",
"-  c #050811",
";  c #0C0B12",
":  c #0D0B19",
">  c #110E15",
",  c #110F1A",
"<  c #0E1014",
"1  c #0E1118",
"2  c #121115",
"3  c #141416",
"4  c #131912",
"5  c #181D15",
"6  c #121318",
"7  c #141319",
"8  c #13161B",
"9  c #151618",
"0  c #17151B",
"q  c #11111D",
"w  c #15141C",
"e  c #18171D",
"r  c #1C171E",
"t  c #17181A",
"y  c #16191E",
"u  c #191A1C",
"i  c #1B1A1D",
"p  c #1A1B1F",
"a  c #1E241A",
"s  c #1F281A",
"d  c #232B1C",
"f  c #26311D",
"g  c #171723",
"h  c #1B1A20",
"j  c #1C1B22",
"k  c #1D1C22",
"l  c #1E1D23",
"z  c #1E1E26",
"x  c #211C23",
"c  c #201F25",
"v  c #201E29",
"b  c #1E2024",
"n  c #1F2025",
"m  c #222225",
"M  c #282725",
"N  c #272823",
"B  c #272128",
"V  c #242329",
"C  c #25242B",
"Z  c #25262B",
"A  c #29262C",
"S  c #2A292C",
"D  c #28292E",
"F  c #2C2D2F",
"G  c #293421",
"H  c #2D3822",
"J  c #303D24",
"K  c #2A2B30",
"L  c #2C2B31",
"P  c #2D2C32",
"I  c #2D2C33",
"U  c #2D2D37",
"Y  c #323137",
"T  c #383735",
"R  c #34343B",
"E  c #37363C",
"W  c #521618",
"Q  c #344128",
"!  c #38482A",
"~  c #3E502E",
"^  c #455832",
"/  c #4B5F36",
"(  c #546C3C",
")  c #2E2945",
"_  c #3B3A40",
"`  c #3B3A41",
"'  c #393C41",
"]  c #3E3E4A",
"[  c #43464B",
"{  c #44454A",
"}  c #46474C",
"|  c #49484E",
" . c #4C4B51",
".. c #4C4B53",
"X. c #555557",
"o. c #54535B",
"O. c #56555B",
"+. c #58575D",
"@. c #5A7540",
"#. c #617C45",
"$. c #5F5E66",
"%. c #626366",
"&. c #6A696F",
"*. c #6B6A72",
"=. c #6C6B71",
"-. c #727378",
";. c #75767B",
":. c #668648",
">. c #698B49",
",. c #6F914E",
"<. c #72964F",
"1. c #769B52",
"2. c #799F53",
"3. c #7AA053",
"4. c #7A7B80",
"5. c #7F7F8B",
"6. c #807F87",
"7. c #83848B",
"8. c #88878D",
"9. c #C8C7CD",
"0. c #CECDD3",
"q. c #D6D5DB",
"w. c #F5F5F7",
"e. c #F6F8F7",
"r. c #FDFCFF",
"t. c #FEFFFF",
/* pixels */
"  . @ O . . .   ; O o     . + ; . o o O ; : ; + > 7 V > > . ; . . o o o o o . . o y   2 . ; > V o o o + : : + . ; ; ; O o o O , O     .   r ",
".   . . . . . . O .         . . o o o O + ; + O . o > . O . O . o o o o   o o o o     0 ;   ;  .+ ; ; + + O O + O O O O o o O : . O x O > r ",
"O     . . . . @ . . .             o . . . o . .     O   O o O   + O O . . o . . 8   ;   + ;   7 ; : : + o   . + O o o O O o o ;     . :     ",
"O . . . . . . . . . . . . .       . + O o   o . O @ @ . @ @ O   + O O . o o o o + [ 4.:   : o   O + + O . o . O ; o o O ; o o O O +    .o o ",
"  O .     . .     . . . .       o O + + . o o O ; ; o o o ; o   . . o             ' -.+   0 ; . o o . + ; ; ; O ; o   = ; o   O o ; + =.z 6 ",
"  . O     .                     . O O O . . . . . +   O   : O o + + O O . . . . ;   o   + >   o o   o ; 2 7 > + ;     O O     ;   o 1 m +   ",
".   . @ O   . 3 o o o o o o o O o o o . O O . o o ;   ;   2 + ; ; ; ; + + ; ; ; +     ; O     x o o . O ; ; ; + ; o o ; =   o w 8 O :       ",
"2     u 3   . F * * * * * = : : o       . O o     +   +   ; o + o o o o o o . .   w   o   2 o   o . . o       . : o O , : o : V 8 o o 1 - 1 ",
"7 e   e ; O 0   % O     t @ .   O     o O o o o o . O O . . . o   o     o . O +   . 6   ;   O   . + + . . O O O w o   o     0 .   + ; o o ; ",
"  > l E ;     6 +   e.@     D 6 O     o . o o . o o . O . . o o . . o o o o . . : o .   + O ; + . . . . . + O O o z - : o         + + o o - ",
"      +   ; 2 _ +   u Z o * ; o + o   o . o o . o o . . . . o o O O O o o   o o P     .         .   . . . . . +   z ;   ; .   O   . O o o o ",
"> ;     ; ;     t.  w o o 5.q o + o   o o o o O . . . O O O O . O O . . o o o   O.u   V O ; . . .     . .   . O o O o   ;   2 @ o . . . o o ",
"  l O o 7 ; c + } n :   U ] g * + o   o . o o O O O O + + + O O o o . . . o o o  .e O L ; ; + ; .     . .     O :   o D     .   O . . O O O ",
"l | e   +   0   +     1   o o 6 O     . O o o o O O O O + + O .     o . . . . . h     7 . o O O +     + O     + O + 6 ;.  +   O + . o O ; = ",
"  2 .   A ; ;       u   V j     .     O + .     o . . . . . . .   o o . . O . o O o + O > ; 2 ; +     O O     @   ; : %.+ 2 + 3 @ . . O ; = ",
"o   o   0     u &   X O       + o     + ; .       o o o . o o   o o . . . . o o   . ;   ; . O   +     + +   . ; : O   ; ;   O . O .   O ; = ",
"o               u     . .     O       . .     . O . . . . .     . o o O # @ .   &   X X O 2   l 6 . >   z o : o       + +   + o       o . O ",
". . . . . o o o 2   ; u   O m   . . . .         @ O . . . . o o + . o . . ~ ^ + X 5     .   u   2 o ;   ;   : o 8 6 o : 1 o + o     . . O O ",
"O O O . . . O . u   l     2   @ . O O O O + .   @ O . . . O + + + . o . + ( @.< N     D . @ .   ; o : :   o : O P j o 2 0 O + o + + + + + ; ",
". . .     . O o     0     0 m     . . . + + + . O . o . O + + + . o o . O H s .   O @ w.  2 2 2 O O h U o : 6 O A 0   2 0 . ; + + + + + + ; ",
"  . .     O * o o   2   u ;       o o     . .   o o o O + + o o     O O + ~ 2 O ;   +   0 m   ; O O w R o 6 > O 0 ;   2 6 o ; ; . . . O O O ",
"  X O     = : * : ;     w O _ : ; > : O o + O   O O o O O O o o   . + + u ( % ;   : l 2   @ 0   O O ; h   O ; ; O > O > ;   ; + . . . . . O ",
"  O O   o : q :   z   A   O t.  w h w ; O ; ; o > = o o o O < G ~ ( @.! H @.@ + Z o 7   o   +   O O o O   o o O o > O @ O . > o . . . . . O ",
"  X .   o : g : 6   h   6   ; o : w : o o ; ; o 7 : o   . G ( <.3.3.3.#.@.#.! ~ 4 * O w 0   2   o ; O O ; =   o   > . .   o >   . . . . O O ",
"x . O A ;   ;       . O O O o   O w     O 6   O O   : + Q ,.3.2.2.2.2.3.3.1.1.2.@.u . o o + ; ; . ;   ; o ;   2     . 7 0 ;     .         o ",
". x   . 2 l   0     o . O O . o   o ; 7 ; : O     1 7.H <.3.<.1.2.3.2.2.2.3.3.2.2.( % o   o + ;   .   + O : o 6 + . . 2 e 2 O   + + : 0 6 - ",
"r . . .             o . O O . . O   ; 6     6 o   w 4 #.3.2.1.<.1.2.2.1.<.2.2.2.<.1.! +     . O o +   + + +   + > .   + 2 2 + o   o : u h q ",
". r . l   c r.z   o o . O . o o O   + O     2 ; O o H 1.2.2.<.:.1.2.2.,.:.<.3.2.1.1.( + + + o   ; : . O ; .   . O     o O O o   o   . ; 1 : ",
"> . . ; O   &.1 . . O . o o       ; . . > + . u 6 . / 3.2.2.1.1.2.3.3.<.>.1.2.2.2.<.:.s + ; O   O O     ; O . ;   o ; O o o o o 2 + o . o o ",
". x   > o . D   O . . . o o o   @ u       O   Z ; + @.3.2.2.2.3.1.:.@.:.1.3.2.2.3.<.,.G   + ; + ; .     : o o O o : w , = O = = 1 + o + - o ",
"V . . V   ;   ; o o o o o . . . ; u   0   O   m o % @.3.2.2.2.1.  % . % ~ <.3.2.@.f d d o + ; ; : + ;   u o o   o : q : = = : = ; . o + : ; ",
"> r .       ;           o O + +   @ 0 X.O u   + o + ( 3.2.2.3.@.          / 3.:.u     . ; + O O + . > + A 2 > ; o = = * o * = * j ; o o O O ",
"_ > ; e O   o o ;     6 z O   O +     U     w + 0 2 ^ 3.2.3.3.^           d 1.~       @   . ; ; 6 : 6 O O 6 o           o . O + w O o : : o ",
"l o   + o   o O : h h o     o   + ; : 0 ; ; l     o G 1.3.2.3.^           u >.f       .     O . ; o   : 6 R : O . o o     o . . 8 ; O : : o ",
"o o     O o   ; ;     o ; w 6   +     o :   ; h o . < #.2.2.3.@..         f <.f       + O O O . ; O   6 O U O o + + O . o o o o     o       ",
"o 0 ; o ; O   . o   w z     : ;   ; +   2 : +   ; ; ; J >.,.2.1.~ .     % ( 3./ .   . ; + + + O ; ; : ;   :   = ; ; ; + O O O O   ; ; .   o ",
"o e > o ; +   o ; o o o > o.*._   O + l o   R 9.; ; O + ^ <.2.3.1.( Q ! #.#.:.@./ H < . o o . O O o g o ; o O : O O O O O O O O o < 1 o   . ",
"  O o   O O o o   O 6       6 O   O       >   7 ; + O . 2 / 2.3.<.<.1.1.3.( @.( ,.G o o o o O ; ;   w   h o O       o o . . o o     .   . < ",
";     o   o O o :     : e : o   u     ; 2 O   ; + + O . . % ~ ,.,.>.1.<.2.3.3.<.! . o O O . + > ;   :   : o o O   o o . . . o o   . + < t n ",
"c o o ;   o O     ; O     ; O o .   l   ; 0 +       o . O O O s / :.1.3.3.3.:.J .     . . o . ; O o : O   o : U . O O + + O . . + .   . O + ",
"T @   .   . ;     A   + c @ 0   ;   O O 2   ;   . .       . . o . u Q ^ ( ^ s ; 3     . O .   + o   o +     2 _   ; o O     0             . ",
"M .   O . . ; . : L ; e l   O   ; o l   ; 2 ;   . . .   + ; ; % 5 / ^ 5 + . O ;     @         + ; . . ;     O m + o ; K m   .   . . . + O + ",
"3     + O . + o   >     +   2 O   h   w ;         . .   + 2 2 f H 1.3.~ . . O + u .     @ l O   ; + O ; O     . +   ; E Y > > > . . . . + + ",
".     . . . . .   6 ;     O ;     . +   . 0..     . .   . + Q f @.3.3.( + . . + <   .     o   7 o O + O O ; .   o     ; ; ; > o . . . .     ",
"  .   . .     O   o w 2 o     . . ; 2   ; q.; + . O .   . s a ^ 1.1.3.,.s . . O % 2 w   . e O     O + . . ; ; O P ;       O .   @ @ + O .   ",
"  @ .   . .   O  .      . .   2 o c   l 2     O + + + . O G a #.1.<.2.2.! . . . u ) 3 3 u -.O.w   O ; O o . + + } : . 2 6 ;   @ O O + .     ",
"  @ .   ; O   O 7.w o   + u   . O   e   O > ;   o O O O = d % @.3.1.3.3.^ % @ . ) u W u 3 V 6   . o . O . o o . n     . O +   o             ",
"  $ .   2 ;   o :   6     m O . O   o o >   ; o     o o + / H H >.,.<.:.d 3 a @ u u u ) 3 2   O .     . + o   o -   2     e O . . . . . O + ",
"  X X           +   ; ;   R 0   O 3 . .   . 2 . + . o   . ~ Q . ! 5 a d 6 + 6 o   + 6 6 @ 3 @ ;   o O O o   o o o O O o o o O - : j O   o   ",
". . .           +   .     e .   . .   @ +   .   o       o + . + Q < O s a ; ; O ; h U   o < u < o . O . o o o . o O O O o o O O   O o 6 z w ",
"              . +   +   O     O   O D %.%.D +   o       o ; 8 y H % O 4 d o O ;   O z o ; 1 ;   O O O . o o . + o O O O o o o * O ;   o O   ",
".             . . + 2   e o   O 0 +   2 2   . 0 + O . o . + ; % H . o u a o O ; w   o - 6 ;   ; . . . . o . O + o o . o o o O + ; :   : w   ",
".     o .     O   2 >   6 . + . O ; O 0 7 . ; . + + + + O . o @ 5 o O 3 @ O O ;  .h O O - ;   ; . o o o o . O O     o . o . + ;   O ; K E z ",
".     O +     O   2 .       : .   =         ;   o . O O . o + u 3 + + 3 u . o o A h ; O : D : o o o o . O O . .       .   . + @ o : * g z o ",
".     ; ; o   O   ; . 7     ; O o : O O o o : o o o o o o o   % % + o + + + O O o   O : : U : o o o o O ; ; O o   . . .     . + ; w o o O   ",
".   o > > o   .   ; : _ 2   ; O O :   o o   ; O + . o         o ; O o O : w w 6 : O o ;   :   ; o o O ; : ; + o + + + .           6 o o O o ",
". O ; 0 0 ; . o o   ; l u o   + ; O . o . . o       . .         u + + + o ; w o * ; : : 1 ; .   . O ; > : ; + . . . . O O . . . O O o o o O ",
"    O : : O     . . : u 6 o   . O .     o . o o     . . .       @   + ;     ; v * * o o o o . + . O + ; + O o   o . . . O O O O O O o o o O ",
"      O O       o ; > : + o     o       o . . o     . . . .     .     + O o E 6.* * * o o * ; ; O O O O . o o   o . . . O O + ; o . O O O O ",
"o     O O o   .   ; ; . o . .   O o     o . o o     . . . .     2 @         u $.* * = : = ; * O + + O O . . O O o . o . . O O O   o . + O O ",
".     . O o o O   + ;     O + o ; O o o . . o         . . . .     @ .   O     . * * * = * o o   . . . . . O + ; . . o o o o o     o . + + . ",
"o     . O o o O   O O     + + . ; + . o . . o       . . . . .           ; 0 +   1 : - o     o .     o o o O O O O . . o o o       . + O O . ",
"o     . O . . O . . . o o O O . + . o o o . o   . . . . . . . .   X @       .   1 ; + o     + O o o o . O O . . O O O . . . o o . . . . . . ",
".   o + ; O O + + . o . O o o . .       o . . o . . . . . . . .   X a 0     ; .       .         O O + ; + + O O O O O O O O O O . . . . . . ",
"o   o o O O O o O O o o o O O O O . . . . . o o o o o o o o ; 1   o ; . z .     . o o o . .     o   +     + o > O   0     l   o o o o o     ",
"o o o o O O O o O O o o o O O O . . O . . . o o o o o o   o o + Y       +   : o   o o o . .     . . > + O ;   . u   2 + V { 0 . . .         ",
"o     o . O . . O O O o o o O O O O O . . o o o o o . o         8.u ; l .   6     o o o o .     .   ; O ; 7 O ; O   ;   ; c     . . . . . . ",
"o o   o . . . o o . . . o o o . O O o . . o o o   o o o         +.    0 . . 0   . o o o o .     7 O ;   o > @ 7 + . 2     +   . . . . . . . ",
". .     . . . .   o . .       . o . . . . o o o     . . o o . . +     o . : : O . o o o o .     L l l ; o +   O : O + o ; w : ; . . . . . . ",
".       . . .     . . .       . . . o . . o o       o o o . O ;   V 2   o :   . . o o o o       L V L l 2 >   o   o : : O     o   . . . . . "
};
